<?xml version="1.0" encoding="UTF-8" standalone="no"?>
<svg
   width="500"
   height="498"
   viewBox="0 0 500 497.99999"
   version="1.1"
   id="svg20"
   sodipodi:docname="UTorrent_current_logo (copia).svg"
   inkscape:version="1.1.2 (0a00cf5339, 2022-02-04)"
   xmlns:inkscape="http://www.inkscape.org/namespaces/inkscape"
   xmlns:sodipodi="http://sodipodi.sourceforge.net/DTD/sodipodi-0.dtd"
   xmlns:xlink="http://www.w3.org/1999/xlink"
   xmlns="http://www.w3.org/2000/svg"
   xmlns:svg="http://www.w3.org/2000/svg"
   xmlns:rdf="http://www.w3.org/1999/02/22-rdf-syntax-ns#"
   xmlns:cc="http://creativecommons.org/ns#"
   xmlns:dc="http://purl.org/dc/elements/1.1/">
  <defs
     id="defs24">
    <linearGradient
       xlink:href="#grad1"
       id="grad2"
       x1="231.40331"
       y1="385.54355"
       x2="231.40331"
       y2="406.5336"
       gradientTransform="matrix(1.0000981,0,0,0.99990195,-215.777,-306.0001)"
       gradientUnits="userSpaceOnUse" />
    <linearGradient
       id="grad1">
      <stop
         offset="0.0000%"
         stop-color="#cf9e48"
         stop-opacity="1.0000"
         id="stop12" />
      <stop
         offset="14.0000%"
         stop-color="#cf9e48"
         stop-opacity="1.0000"
         id="stop14" />
      <stop
         offset="100.0000%"
         stop-color="#f9b900"
         stop-opacity="1.0000"
         id="stop16" />
    </linearGradient>
    <linearGradient
       xlink:href="#grad3"
       id="grad4"
       x1="67.862083"
       y1="1299.9646"
       x2="67.862083"
       y2="1308.7313"
       gradientTransform="matrix(3.3486196,0,0,0.29863052,-215.777,-306.0001)"
       gradientUnits="userSpaceOnUse" />
    <linearGradient
       id="grad3">
      <stop
         offset="0.0000%"
         stop-color="#548a42"
         stop-opacity="1.0000"
         id="stop30" />
      <stop
         offset="71.0000%"
         stop-color="#75aa64"
         stop-opacity="1.0000"
         id="stop32" />
      <stop
         offset="100.0000%"
         stop-color="#4e7f3f"
         stop-opacity="1.0000"
         id="stop34" />
    </linearGradient>
    <linearGradient
       xlink:href="#grad5"
       id="grad6"
       x1="234.03081"
       y1="399.9007"
       x2="234.03081"
       y2="410.68167"
       gradientTransform="matrix(1.0104473,0,0,0.98966069,-215.777,-306.0001)"
       gradientUnits="userSpaceOnUse" />
    <linearGradient
       id="grad5">
      <stop
         offset="0.0000%"
         stop-color="#75aa64"
         stop-opacity="1.0000"
         id="stop46" />
      <stop
         offset="71.0000%"
         stop-color="#75aa64"
         stop-opacity="1.0000"
         id="stop48" />
      <stop
         offset="100.0000%"
         stop-color="#4e7f3f"
         stop-opacity="1.0000"
         id="stop50" />
    </linearGradient>
    <linearGradient
       xlink:href="#grad5"
       id="grad8"
       x1="180.94569"
       y1="505.47989"
       x2="180.94569"
       y2="515.07788"
       gradientTransform="matrix(1.3024482,0,0,0.76778484,-215.777,-306.0001)"
       gradientUnits="userSpaceOnUse" />
    <linearGradient
       id="grad9"
       gradientTransform="matrix(0.99996187,0,0,1.0000381,-215.777,-306.0001)"
       x1="237.81467"
       y1="403.6908"
       x2="239.12611"
       y2="403.6908"
       gradientUnits="userSpaceOnUse">
      <stop
         offset="0.0000%"
         stop-color="#75aa64"
         stop-opacity="1.0000"
         id="stop72" />
      <stop
         offset="17.0000%"
         stop-color="#75aa64"
         stop-opacity="1.0000"
         id="stop74" />
      <stop
         offset="100.0000%"
         stop-color="#4e7f3f"
         stop-opacity="1.0000"
         id="stop76" />
    </linearGradient>
    <linearGradient
       id="grad10"
       x1="244.72791"
       y1="403.70621"
       x2="246.0394"
       y2="403.70621"
       gradientUnits="userSpaceOnUse"
       gradientTransform="translate(-215.777,-306.0001)">
      <stop
         offset="0.0000%"
         stop-color="#75aa64"
         stop-opacity="1.0000"
         id="stop83" />
      <stop
         offset="17.0000%"
         stop-color="#75aa64"
         stop-opacity="1.0000"
         id="stop85" />
      <stop
         offset="100.0000%"
         stop-color="#4e7f3f"
         stop-opacity="1.0000"
         id="stop87" />
    </linearGradient>
  </defs>
  <sodipodi:namedview
     id="namedview22"
     pagecolor="#ffffff"
     bordercolor="#000000"
     borderopacity="0.25"
     inkscape:pageshadow="2"
     inkscape:pageopacity="0.0"
     inkscape:pagecheckerboard="0"
     showgrid="false"
     inkscape:zoom="0.40844424"
     inkscape:cx="-62.432023"
     inkscape:cy="73.449438"
     inkscape:window-width="1920"
     inkscape:window-height="974"
     inkscape:window-x="-11"
     inkscape:window-y="-11"
     inkscape:window-maximized="1"
     inkscape:current-layer="svg20" />
  <!-- Generator: Sketch 56.3 (81716) - https://sketch.com -->
  <title
     id="title2">Group</title>
  <desc
     id="desc4">Created with Sketch.</desc>
  <path
     id="path988"
     style="display:inline;fill:#ffffff;fill-opacity:1;stroke-width:1.3705"
     d="M 252.91442,44.937141 C 208.58833,44.639484 165.06411,62.092453 132.4463,93.826359 l -11.3068,11.001561 -12.68007,-2.50242 c -6.97141,-1.37133 -16.529146,-2.854609 -21.240239,-3.295937 l -8.560157,-0.793438 v 30.532815 30.53289 l -6.72914,5.12695 c -19.17875,14.62578 -31.426328,42.82555 -29.876719,68.7561 1.455859,24.36101 14.936016,49.50843 33.523594,62.51523 2.479687,1.73523 3.537265,4.70039 5.310078,15.04516 12.754687,74.43039 70.259373,131.96519 144.424373,144.48547 15.46313,2.61044 45.86055,1.65514 61.66078,-1.93787 70.30547,-15.98767 122.77977,-71.40206 135.07078,-142.63917 1.77555,-10.29078 2.84196,-13.37578 5.18805,-14.92304 6.50297,-4.28891 19.66063,-19.27578 23.89524,-27.22172 12.01062,-22.53735 13.0182,-51.30094 2.60929,-74.56969 -4.62625,-10.3418 -14.70914,-23.45641 -22.73562,-29.57156 l -6.82071,-5.18797 -0.0781,-30.44125 -0.0781,-30.441329 -9.24679,0.839218 c -5.08797,0.463282 -14.4975,1.907661 -20.90453,3.204371 l -11.6425,2.34985 L 370.5408,93.460109 C 343.30122,67.294797 308.61888,50.6555 271.93896,46.157844 265.60357,45.381281 259.24357,44.979719 252.9113,44.937141 Z" />
  <g
     id="g52134"
     transform="matrix(5.1798581,0,0,5.1798581,-989.93815,-594.84731)"
     style="display:inline">
    <path
       id="path52048"
       style="fill:#6ab956;fill-opacity:1;stroke-width:0.999999"
       d="m 898.66016,530.47266 -22.78321,0.55273 c -23.84598,0.57933 -27.27359,1.14346 -33.07422,5.45117 -5.4935,4.07966 -10.55052,13.95732 -13.58593,26.53321 l -0.66407,2.75 8.26954,-0.0606 c 21.38044,-0.15439 37.16158,-1.61302 42.53906,-3.93164 10.01514,-4.31826 16.87347,-14.19796 18.67578,-26.90235 z m -153.73828,0.28711 0.82226,6.00781 c 1.03903,7.59742 4.56749,14.60233 9.68164,19.22265 7.35364,6.64358 10.86544,7.79333 26.66602,8.72657 v 0.002 c 6.6,0.38986 16.6196,0.78316 22.26758,0.875 l 10.26953,0.16797 -0.60743,-2.75 c -2.86106,-12.95513 -8.20892,-22.78484 -14.96679,-27.50781 -5.01642,-3.50593 -14.62192,-4.69816 -38.04883,-4.72461 z"
       transform="matrix(0.26458333,0,0,0.26458333,22.256808,28.025015)" />
    <path
       id="path52044"
       style="fill:#406eaf;fill-opacity:1;stroke-width:0.999999"
       d="m 822.74219,360.90625 c -32.34287,-0.21746 -64.10243,12.51112 -87.90235,35.66602 l -8.25195,8.02734 -9.24805,-1.82031 c -5.08675,-1.0006 -12.06056,-2.08228 -15.49804,-2.4043 l -6.25,-0.58398 v 22.27929 22.2793 l -4.90625,3.74023 c -13.99393,10.67188 -22.93932,31.2495 -21.8086,50.16993 1.06224,17.77526 10.90618,36.12664 24.46875,45.61718 1.80934,1.26611 2.57173,3.4323 3.86524,10.98047 9.30659,54.30879 51.26573,96.28244 105.38086,105.41797 11.28276,1.90473 33.47119,1.20761 45,-1.41406 51.29896,-11.66555 89.57862,-52.09352 98.54687,-104.07227 1.29551,-7.50875 2.08115,-9.76359 3.79297,-10.89258 4.74497,-3.12941 14.34379,-14.0674 17.43359,-19.86523 8.76363,-16.44457 9.49735,-37.42801 1.90235,-54.40625 -3.37557,-7.54598 -10.73129,-17.11421 -16.58789,-21.57617 l -4.97461,-3.78906 -0.0566,-22.21289 -0.0566,-22.2129 -6.75,0.61524 c -3.71248,0.33789 -10.57503,1.38785 -15.25,2.33398 l -8.5,1.72071 -8.5293,-8.19141 c -19.87559,-19.09175 -45.1815,-31.23191 -71.94531,-34.51367 -4.62272,-0.56683 -9.25459,-0.86151 -13.875,-0.89258 z m -1.15039,25.44727 c 17.31227,0 19.07781,0.17491 27.5,2.74023 4.95001,1.50773 13.04999,4.74465 18,7.19141 9.26373,4.57908 24.85594,15.90296 24.27929,17.63281 -0.17854,0.53567 -2.84672,2.37226 -5.92968,4.08008 l -5.60547,3.10351 -8.53906,-3.66797 c -26.14232,-11.2306 -54.68972,-13.38462 -81.59961,-6.1582 -5.16628,1.38735 -13.08934,4.25388 -17.60743,6.37109 l -8.21484,3.84961 -5.89258,-3.33789 c -3.24064,-1.83673 -5.89062,-3.74564 -5.89062,-4.24023 0,-1.02917 6.96881,-7.00884 13.01953,-11.17188 6.94768,-4.78012 19.65039,-10.74724 29.03125,-13.63671 8.39803,-2.58671 10.08799,-2.75586 27.44922,-2.75586 z m -100.01172,42.40625 c 0.5918,0 4.61265,1.36413 8.93554,3.03125 8.58547,3.3109 21.90542,10.94891 28.4629,16.32226 l 4.1621,3.41211 6.97657,-4.18555 c 16.06352,-9.63964 28.99313,-13.53247 47.47461,-14.29492 20.24957,-0.83535 38.50032,3.71861 54.53515,13.61133 l 7.76758,4.79297 6.30274,-4.77149 c 8.48878,-6.42512 17.56825,-11.39082 27.33984,-14.95703 4.46177,-1.62833 8.32276,-2.96093 8.58203,-2.96093 0.2592,0 0.47266,25.82443 0.47266,57.38867 0,61.64523 -0.23329,65.13283 -5.36914,80.2207 -6.91446,20.31292 -22.07917,40.65777 -38.96485,52.27539 -12.54678,8.6324 -31.46349,15.6328 -45.04492,16.66797 h -0.002 c -3.91642,0.29851 -8.24415,0.66718 -9.61914,0.81836 -5.51203,0.60661 -20.99845,-1.41724 -29.28907,-3.82813 -34.39377,-10.00161 -60.64161,-37.305 -70.50585,-73.33789 l -2.65821,-9.70507 -0.3164,-60.25 c -0.22447,-42.53545 -0.002,-60.25 0.75781,-60.25 z m 69.70117,151 1.88672,2.08593 c 3.26835,3.61149 11.41027,9.14057 19.28711,13.09766 4.17868,2.09922 8.28183,3.81686 9.11719,3.81641 4.31444,-0.002 23.48402,-11.38717 28.42382,-16.88086 l 1.9043,-2.11914 H 821.5918 Z m 52.625,25.43359 c -1.10079,0.0246 -2.68098,0.383 -5.40625,1.02539 -8.13902,1.91868 -24.36665,1.93906 -33.32617,0.041 -5.27724,-1.11788 -7.25013,-1.19157 -8.31641,-0.30665 -1.7495,1.45199 -4.26562,6.2432 -4.26562,8.1211 0,2.60164 14.68486,8.10077 24,8.98828 9.28924,0.88501 27.02763,-2.79983 32.6914,-6.79102 1.8754,-1.32155 2.04854,-1.9587 1.19532,-4.40625 -0.54857,-1.57364 -2.02572,-3.82648 -3.28321,-5.00781 -1.25008,-1.17439 -1.87376,-1.69566 -3.28906,-1.66406 z"
       transform="matrix(0.26458333,0,0,0.26458333,22.256808,28.025015)" />
  </g>
  <metadata
     id="metadata26">
    <rdf:RDF>
      <cc:Work
         rdf:about="">
        <dc:title>Group</dc:title>
      </cc:Work>
    </rdf:RDF>
  </metadata>
</svg>
